<svg t="1771903800222" class="icon" viewBox="0 0 1024 1024" version="1.1" xmlns="http://www.w3.org/2000/svg" p-id="2449" width="200" height="200"><path d="M428.26 104h173.688C794.144 104 920 230.692 920 422.888v169.852c0 192.2-125.856 327.26-318.052 327.26h-173.688C236.064 920 104 784.936 104 592.74v-169.852C104 230.692 236.064 104 428.26 104z" fill="#4277EB" p-id="2450"></path><path d="M436.008 152h149.7C755.808 152 872 269.328 872 439.432v161.892C872 771.428 755.808 872 585.708 872h-149.7C265.904 872 152 771.428 152 601.324v-161.892C152 269.328 265.904 152 436.008 152z" fill="#2C5ECB" p-id="2451"></path><path d="M712.712 580.584c6.36 0.22 11.728 2.54 16.1 6.916 4.372 4.376 6.692 9.744 6.892 16.08l2.772 79.38c0.224 6.32-1.704 11.56-5.784 15.64s-9.296 5.988-15.636 5.788c-106.464-3.72-198.4-44.28-275.76-121.672-77.344-77.368-117.864-169.32-121.584-275.824-0.224-6.36 1.684-11.58 5.76-15.66 4.08-4.08 9.32-6.008 15.66-5.768l79.304 2.732c6.38 0.244 11.724 2.544 16.1 6.92 4.372 4.372 6.692 9.74 6.892 16.08 1.012 28.936 6.576 56.248 16.612 81.972 3.104 8.572 1.6 15.9-4.52 22.02l-47.984 48.004c36.16 66.792 87.6 118.252 154.344 154.4l47.984-48c4.724-6.172 12.048-7.68 22.012-4.52 27.804 9.436 54.744 14.6 80.84 15.512" fill="#FFBD2E" p-id="2452"></path></svg>