<svg t="1770793914865" class="icon" viewBox="0 0 1024 1024" version="1.1" xmlns="http://www.w3.org/2000/svg" p-id="11149" width="200" height="200"><path d="M512.77 367.56c-68.07 0-123.26 55.17-123.26 123.25s55.18 123.25 123.26 123.25c68.09 0 123.27-55.17 123.27-123.25s-55.18-123.25-123.27-123.25z" fill="#F27575" p-id="11150"></path><path d="M512 0C229.23 0 0 229.23 0 512s229.23 512 512 512 512-229.23 512-512S794.77 0 512 0z m180.87 773.59H332.69c-96.65 0-144.71-72.74-106.82-161.63 0 0 40.3-69.54 90.63-156.41 50.32-86.87 118.06-141.09 196.28-141.09 79.02 0 143.81 53.72 196.28 141.09s90.64 156.41 90.64 156.4c37.87 88.9-10.2 161.64-106.83 161.64z m91.66-323.4c-22.64 14.05-49.55-5.04-54.28-17.42-30.98-81.07-107.16-140.21-199.14-145.51-12.6-0.98-25.25-0.98-37.85 0.01v-0.05c-92.16 5.13-168.48 64.36-199.51 145.54-4.73 12.38-31.64 31.47-54.28 17.42-26.77-16.62-47.25-77.02-12.51-126.5 23.97-34.14 118.52-72.38 264.03-72.74v-0.03c14.2-0.66 28.42-0.66 42.62 0v0.04c145.14 0.47 239.49 38.63 263.42 72.73 34.75 49.49 14.28 109.88-12.5 126.51z" fill="#F27575" p-id="11151"></path></svg>